<svg width="20" height="20" viewBox="0 0 20 20" fill="none" xmlns="http://www.w3.org/2000/svg">
<path d="M3.33337 7.49992C3.33337 7.05789 3.50897 6.63397 3.82153 6.32141C4.13409 6.00885 4.55801 5.83325 5.00004 5.83325H15C15.4421 5.83325 15.866 6.00885 16.1786 6.32141C16.4911 6.63397 16.6667 7.05789 16.6667 7.49992V9.16659C16.2247 9.16659 15.8008 9.34218 15.4882 9.65474C15.1756 9.9673 15 10.3912 15 10.8333C15 11.2753 15.1756 11.6992 15.4882 12.0118C15.8008 12.3243 16.2247 12.4999 16.6667 12.4999V14.1666C16.6667 14.6086 16.4911 15.0325 16.1786 15.3451C15.866 15.6577 15.4421 15.8333 15 15.8333H5.00004C4.55801 15.8333 4.13409 15.6577 3.82153 15.3451C3.50897 15.0325 3.33337 14.6086 3.33337 14.1666V12.4999C3.7754 12.4999 4.19932 12.3243 4.51189 12.0118C4.82445 11.6992 5.00004 11.2753 5.00004 10.8333C5.00004 10.3912 4.82445 9.9673 4.51189 9.65474C4.19932 9.34218 3.7754 9.16659 3.33337 9.16659V7.49992Z" stroke="#E8790C" stroke-width="1.5"/>
</svg>
